<svg width="7" height="7" viewBox="0 0 7 7" fill="none" xmlns="http://www.w3.org/2000/svg">
<path d="M3.324 6.42827C3.252 6.42827 3.192 6.40827 3.144 6.36827C3.104 6.32027 3.084 6.26027 3.084 6.18827V5.70827C3.084 5.60427 3.1 5.52427 3.132 5.46827C3.164 5.40427 3.22 5.33227 3.3 5.25227L5.1 3.50027L3.3 1.74827C3.22 1.66827 3.164 1.60027 3.132 1.54427C3.1 1.48027 3.084 1.39627 3.084 1.29227V0.812265C3.084 0.740265 3.104 0.684265 3.144 0.644265C3.192 0.596266 3.252 0.572266 3.324 0.572266C3.364 0.572266 3.408 0.584265 3.456 0.608265C3.504 0.624265 3.548 0.652266 3.588 0.692266L5.916 2.94827C5.988 3.02027 6.036 3.08827 6.06 3.15227C6.084 3.21627 6.1 3.28027 6.108 3.34427V3.65627C6.1 3.72027 6.084 3.78427 6.06 3.84827C6.036 3.91227 5.988 3.98027 5.916 4.05227L3.588 6.30827C3.548 6.34827 3.504 6.38027 3.456 6.40427C3.408 6.42027 3.364 6.42827 3.324 6.42827ZM0.252 6.42827C0.18 6.42827 0.12 6.40827 0.072 6.36827C0.024 6.32027 0 6.26027 0 6.18827V5.70827C0 5.60427 0.016 5.52427 0.048 5.46827C0.08 5.40427 0.136 5.33227 0.216 5.25227L2.028 3.50027L0.216 1.74827C0.136 1.66827 0.08 1.60027 0.048 1.54427C0.016 1.48027 0 1.39627 0 1.29227V0.812265C0 0.740265 0.024 0.684265 0.072 0.644265C0.12 0.596266 0.18 0.572266 0.252 0.572266C0.292 0.572266 0.332 0.584265 0.372 0.608265C0.42 0.624265 0.468 0.652266 0.516 0.692266L2.832 2.94827C2.904 3.02027 2.952 3.08827 2.976 3.15227C3.008 3.21627 3.028 3.28027 3.036 3.34427V3.65627C3.028 3.72027 3.008 3.78427 2.976 3.84827C2.952 3.91227 2.904 3.98027 2.832 4.05227L0.516 6.30827C0.468 6.34827 0.42 6.38027 0.372 6.40427C0.332 6.42027 0.292 6.42827 0.252 6.42827Z" fill="#343434"/>
</svg>
