<svg width="50" height="50" viewBox="0 0 50 50" fill="none" xmlns="http://www.w3.org/2000/svg">
<path d="M34.375 17.1875H14.0625V46.875H34.375V17.1875Z" fill="#AD6643"/>
<path d="M27.3438 22.7165C27.3438 19.6629 21.7473 17.1875 14.8438 17.1875C7.94023 17.1875 2.34375 19.6629 2.34375 22.7165C2.34375 24.1186 3.52422 25.3985 5.46875 26.3731V43.75H24.2188V26.3731C26.1633 25.3985 27.3438 24.1186 27.3438 22.7165Z" fill="#FBE9D8"/>
<path d="M10.9375 47.6562H5.18036C3.88378 47.6562 2.91132 46.4453 3.16562 45.1465C3.68056 42.5176 5.94159 40.625 8.56757 40.625H10.9375V47.6562Z" fill="#F7B030"/>
<path d="M40.625 47.6562C44.5083 47.6562 47.6562 37.5127 47.6562 25C47.6562 12.4873 44.5083 2.34375 40.625 2.34375H37.5V47.6562H40.625Z" fill="#AD6643"/>
<path d="M44.5312 25C44.5312 37.5127 41.3828 47.6562 37.5 47.6562C34.9033 47.6562 32.6348 43.1191 31.417 36.3711C31.3258 35.8652 31.2406 35.3477 31.1611 34.8184C30.7163 31.7542 30.4856 28.6627 30.4707 25.5664C30.4697 25.3779 30.4688 25.1895 30.4688 25C30.4688 24.6455 30.4714 24.293 30.4766 23.9424C30.5098 21.0691 30.73 18.2011 31.1357 15.3564C31.2207 14.777 31.3125 14.2122 31.4111 13.6621C32.6279 6.89551 34.8994 2.34375 37.5 2.34375C41.3828 2.34375 44.5312 12.4873 44.5312 25Z" fill="#C48669"/>
<path d="M17.1875 47.6562H9.70323C8.01769 47.6562 6.75343 45.7722 7.084 43.7527C7.75392 39.6628 10.6928 36.7188 14.1067 36.7188H17.1875V47.6562Z" fill="#E09F2C"/>
<path d="M28.125 47.6562H33.8821C35.1787 47.6562 36.1512 46.4453 35.8969 45.1465C35.3819 42.5172 33.1209 40.625 30.4949 40.625H28.125V47.6562Z" fill="#F7B030"/>
<path d="M21.875 47.6562H29.3593C31.0448 47.6562 32.3091 45.7722 31.9785 43.7527C31.3086 39.6628 28.3697 36.7188 24.9559 36.7188H21.875V47.6562Z" fill="#E09F2C"/>
<path d="M24.7119 47.6563H14.3506C13.992 47.6563 13.6443 47.5329 13.3658 47.3069C13.0874 47.0809 12.8952 46.7659 12.8215 46.415L11.884 41.9515C11.0228 37.8517 13.6151 33.8253 17.6457 33.0031C18.8903 32.7491 20.1732 32.7491 21.4178 33.0031C25.448 33.8253 28.0402 37.8517 27.1795 41.9515L26.242 46.415C26.1682 46.7661 25.9759 47.0811 25.6973 47.3072C25.4186 47.5332 25.0707 47.6565 24.7119 47.6563Z" fill="#F7B030"/>
<path d="M20.8062 22.6013C20.9019 22.6405 21.0044 22.6603 21.1078 22.6596C21.2111 22.6589 21.3133 22.6377 21.4084 22.5972C21.5036 22.5567 21.5897 22.4977 21.6618 22.4236C21.734 22.3496 21.7907 22.262 21.8288 22.1659C21.8668 22.0698 21.8854 21.967 21.8835 21.8637C21.8815 21.7603 21.8591 21.6584 21.8175 21.5638C21.7758 21.4691 21.7158 21.3837 21.641 21.3125C21.5661 21.2412 21.4778 21.1855 21.3812 21.1486C19.572 20.4323 17.2504 20.0378 14.8437 20.0378C12.4371 20.0378 10.1155 20.4323 8.30624 21.1486C8.20967 21.1855 8.12139 21.2412 8.04651 21.3125C7.97163 21.3837 7.91163 21.4691 7.87001 21.5638C7.82838 21.6584 7.80594 21.7603 7.804 21.8637C7.80206 21.967 7.82065 22.0698 7.8587 22.1659C7.89674 22.262 7.95348 22.3496 8.02564 22.4236C8.09779 22.4977 8.18392 22.5567 8.27903 22.5972C8.37414 22.6377 8.47634 22.6589 8.57972 22.6596C8.68309 22.6603 8.78558 22.6405 8.88124 22.6013C10.5121 21.9558 12.6295 21.6003 14.8437 21.6003C17.058 21.6003 19.1755 21.9558 20.8062 22.6013Z" fill="black"/>
<path d="M40.625 1.5625H37.5C35.2182 1.5625 33.2409 4.04727 31.782 8.74805C31.0906 10.9761 30.5586 13.5768 30.2036 16.4062H14.0625V16.4178C10.9094 16.5013 7.96035 17.0877 5.68887 18.0925C3.02793 19.2694 1.5625 20.9116 1.5625 22.7165C1.5625 24.2684 2.66768 25.7221 4.6875 26.844V41.2157C3.50086 42.1652 2.68983 43.5051 2.39893 44.9967C2.31518 45.4179 2.32606 45.8524 2.43077 46.2688C2.53548 46.6853 2.73141 47.0733 3.00439 47.4048C3.26794 47.7274 3.59987 47.9874 3.97619 48.166C4.35251 48.3446 4.76382 48.4373 5.18037 48.4375H33.8821C34.5153 48.4376 35.1298 48.2232 35.6255 47.8292C36.1746 48.2164 36.8281 48.4285 37.5 48.4375H40.625C42.9068 48.4375 44.8841 45.9527 46.343 41.252C47.6937 36.8998 48.4375 31.128 48.4375 25C48.4375 18.872 47.6937 13.1002 46.343 8.74805C44.8841 4.04727 42.9068 1.5625 40.625 1.5625ZM5.18037 46.875C4.99453 46.8744 4.81115 46.8326 4.64346 46.7525C4.47577 46.6724 4.32797 46.556 4.21074 46.4118C4.08466 46.2582 3.99428 46.0785 3.94613 45.8857C3.89798 45.6929 3.89327 45.4918 3.93232 45.297C4.08231 44.5192 4.42125 43.7902 4.9193 43.1743C5.41735 42.5584 6.05922 42.0744 6.78838 41.7649C6.57559 42.3703 6.41654 42.9933 6.31309 43.6266C6.12134 44.7539 6.35709 45.9123 6.97422 46.875H5.18037ZM10.1562 46.875H9.70322C9.24141 46.875 8.79502 46.6494 8.44746 46.2402C7.9335 45.6353 7.71201 44.7526 7.85498 43.8792C8.24561 41.4913 9.48584 39.4925 11.1687 38.3982C10.8757 39.6172 10.8588 40.8861 11.1193 42.1124L12.0568 46.5753C12.0789 46.677 12.1078 46.777 12.1434 46.8748L10.1562 46.875ZM12.0059 36.2747C10.224 36.8591 8.69805 38.1657 7.65273 39.9134C7.1716 39.9858 6.70074 40.115 6.25 40.2982V26.3731C6.25 26.2282 6.20968 26.0861 6.13354 25.9627C6.05739 25.8394 5.94843 25.7397 5.81885 25.6747C4.08203 24.804 3.125 23.7534 3.125 22.7165C3.125 21.5844 4.28994 20.4199 6.321 19.5215C8.58447 18.5201 11.6113 17.9688 14.8438 17.9688C18.0762 17.9688 21.1035 18.5201 23.3665 19.5215C25.3978 20.4199 26.5625 21.5845 26.5625 22.7166C26.5625 23.7535 25.6055 24.8041 23.8687 25.6748C23.7391 25.7398 23.6301 25.8395 23.554 25.9628C23.4778 26.0861 23.4375 26.2282 23.4375 26.3731V32.8607C22.8437 32.5781 22.2178 32.3689 21.5734 32.2376C20.226 31.961 18.8365 31.961 17.4891 32.2376C16.436 32.452 15.4362 32.8739 14.548 33.4788C13.6597 34.0836 12.9008 34.8593 12.3154 35.7605C12.205 35.9287 12.1033 36.1009 12.0059 36.2747ZM26.414 41.7908L25.4765 46.2544C25.439 46.4296 25.3427 46.5866 25.2036 46.6995C25.0645 46.8124 24.891 46.8743 24.7119 46.875H14.3506C14.1715 46.8743 13.998 46.8124 13.8589 46.6995C13.7198 46.5866 13.6235 46.4296 13.586 46.2544L12.6485 41.7908C12.4592 40.9073 12.4477 39.9949 12.6147 39.1068C12.7818 38.2188 13.124 37.3729 13.6214 36.6186C14.094 35.8898 14.707 35.2625 15.4246 34.7732C16.1422 34.2839 16.9501 33.9424 17.8011 33.7686C18.9424 33.5343 20.1194 33.5343 21.2606 33.7686C22.1116 33.9424 22.9195 34.2839 23.6371 34.7732C24.3547 35.2625 24.9677 35.8898 25.4403 36.6186C25.9379 37.3729 26.2802 38.2187 26.4474 39.1068C26.6146 39.9948 26.6032 40.9072 26.414 41.7908ZM30.6152 46.2402C30.2673 46.6497 29.8213 46.875 29.3595 46.875H26.919C26.9546 46.7773 26.9835 46.6772 27.0056 46.5756L27.9431 42.1121C28.2037 40.8859 28.1871 39.6169 27.8942 38.3979C29.5771 39.4917 30.817 41.4911 31.2079 43.879C31.3505 44.7524 31.129 45.6348 30.6152 46.2402ZM27.0566 36.2747C26.959 36.1009 26.8575 35.9287 26.7471 35.7605C26.2695 35.0325 25.6799 34.3846 25 33.8408V26.844C27.0198 25.7221 28.125 24.2684 28.125 22.7165C28.125 20.9116 26.6596 19.2692 23.9986 18.0925C23.9027 18.05 23.8033 18.0097 23.7057 17.9688H30.0284C29.8041 20.2133 29.6875 22.5786 29.6875 25C29.6875 30.5229 30.2861 35.7209 31.3867 39.8749C30.3423 38.1464 28.8254 36.8548 27.0566 36.2747ZM34.8518 46.4114C34.7346 46.5557 34.5868 46.6721 34.4191 46.7523C34.2514 46.8325 34.068 46.8744 33.8821 46.875H32.0883C32.7054 45.9122 32.9412 44.7539 32.7494 43.6265C32.6459 42.9932 32.4869 42.3703 32.2741 41.7649C33.0033 42.0744 33.6452 42.5584 34.1432 43.1743C34.6413 43.7903 34.9802 44.5193 35.1302 45.2971C35.1692 45.4919 35.1645 45.693 35.1164 45.8858C35.0682 46.0785 34.9778 46.2582 34.8518 46.4118V46.4114ZM37.5 46.875C37.1569 46.8647 36.8241 46.7556 36.5416 46.5607C36.7246 46.0604 36.7668 45.5194 36.6636 44.9967C36.474 44.0215 36.0601 43.1037 35.4545 42.3162C34.8489 41.5286 34.0684 40.8927 33.1746 40.459C32.7792 39.106 32.4572 37.7326 32.2099 36.3448C33.2887 36.0421 35.6815 35.6346 38.8154 36.6791C38.9137 36.7156 39.0183 36.7319 39.123 36.7271C39.2276 36.7223 39.3303 36.6965 39.4248 36.6512C39.5193 36.6059 39.6038 36.5421 39.6731 36.4635C39.7424 36.3849 39.7952 36.2932 39.8284 36.1938C39.8615 36.0944 39.8743 35.9893 39.866 35.8848C39.8577 35.7803 39.8285 35.6786 39.7801 35.5857C39.7317 35.4927 39.665 35.4105 39.5842 35.3438C39.5033 35.2772 39.4099 35.2275 39.3094 35.1977L39.3007 35.1948L39.2896 35.1914C35.9269 34.0752 33.3131 34.4334 31.9516 34.7926C31.5017 31.7252 31.2679 28.63 31.252 25.5299C32.2069 25.2051 34.6774 24.6235 38.034 25.7424C38.1322 25.7788 38.2368 25.7952 38.3415 25.7904C38.4462 25.7856 38.5489 25.7598 38.6434 25.7145C38.7379 25.6692 38.8223 25.6054 38.8916 25.5268C38.961 25.4482 39.0138 25.3565 39.0469 25.2571C39.0801 25.1576 39.0929 25.0526 39.0846 24.9481C39.0763 24.8436 39.0471 24.7419 38.9986 24.6489C38.9502 24.556 38.8836 24.4738 38.8027 24.4071C38.7219 24.3404 38.6284 24.2907 38.5279 24.2609L38.5193 24.2582L38.508 24.2546C35.2196 23.1634 32.6475 23.5193 31.2579 23.8977C31.2926 21.0331 31.5156 18.174 31.9255 15.3388C32.816 15.0458 35.3673 14.4377 38.815 15.5869C38.9133 15.6234 39.0179 15.6397 39.1226 15.6349C39.2273 15.6301 39.3299 15.6043 39.4244 15.559C39.5189 15.5138 39.6034 15.4499 39.6727 15.3713C39.742 15.2927 39.7948 15.201 39.828 15.1016C39.8611 15.0022 39.874 14.8971 39.8657 14.7926C39.8574 14.6882 39.8281 14.5864 39.7797 14.4935C39.7313 14.4005 39.6646 14.3183 39.5838 14.2516C39.5029 14.185 39.4095 14.1353 39.309 14.1055L39.3003 14.1026L39.2893 14.0992C36.1259 13.0492 33.6263 13.304 32.2075 13.637C32.4753 12.1429 32.8313 10.666 33.2737 9.21396C34.457 5.40039 36.0367 3.125 37.5 3.125C38.9633 3.125 40.543 5.40039 41.7257 9.21113C43.0312 13.418 43.75 19.0246 43.75 25C43.75 30.9754 43.0312 36.5825 41.7257 40.7889C40.543 44.5996 38.9633 46.875 37.5 46.875ZM44.8507 40.7889C43.668 44.5996 42.0883 46.875 40.625 46.875H40.4435C41.4963 45.6708 42.4324 43.7833 43.218 41.252C44.5687 36.8998 45.3125 31.128 45.3125 25C45.3125 18.872 44.5687 13.1002 43.218 8.74805C42.4324 6.2167 41.4963 4.3292 40.4435 3.125H40.625C42.0883 3.125 43.668 5.40039 44.8507 9.21113C46.1562 13.418 46.875 19.0246 46.875 25C46.875 30.9754 46.1562 36.5825 44.8507 40.7889Z" fill="black"/>
</svg>
