<svg width="50" height="50" viewBox="0 0 50 50" fill="none" xmlns="http://www.w3.org/2000/svg">
<path d="M47.6562 19.5312L47.0254 19.9522C45.7937 20.7736 44.8013 21.9065 44.149 23.2355C43.4967 24.5646 43.2078 26.0427 43.3115 27.5195L35.1562 17.9688L47.6562 19.5312Z" fill="#E6E6E6"/>
<path d="M36.7188 28.125L36.0596 34.501L35.2676 42.1553L24.6416 42.1807H24.623C22.8586 42.1804 21.1665 41.4792 19.9189 40.2314C19.3007 39.6131 18.5667 39.1227 17.7589 38.7881C16.9511 38.4534 16.0853 38.2812 15.2109 38.2812H14.0625L7.8125 47.6562C8.30501 44.2087 8.07638 40.6964 7.14107 37.3418C6.20576 33.9872 4.58415 30.8633 2.37891 28.168L2.34375 28.125L12.5 33.5938L36.7188 28.125Z" fill="#2B7CD4"/>
<path d="M15.625 38.2812L17.9688 44.5312L25 42.1875L20.3125 38.2812H15.625Z" fill="#CCCCCC"/>
<path d="M44.5312 32.1143V32.8916C44.5315 34.5135 44.1058 36.107 43.2968 37.5128C42.4879 38.9185 41.324 40.0872 39.9216 40.9019C38.5191 41.7166 36.9274 42.1488 35.3055 42.1552C33.6836 42.1616 32.0885 41.7421 30.6797 40.9385L23.3281 36.7461C18.3242 33.8947 14.094 29.862 11.0068 25C10.6807 24.4873 10.3682 23.9665 10.0693 23.4375C7.19568 18.3553 5.62738 12.6398 5.50488 6.80273C5.49805 6.5371 5.49609 6.2705 5.49609 6.00391L5.49707 5.20898L5.50098 2.37598L8.49121 2.37988C15.4844 2.38848 22.3177 4.47295 28.125 8.36914C28.6475 8.71974 29.1608 9.08432 29.665 9.46289C33.5179 12.3558 36.7376 16.007 39.126 20.1914L43.3115 27.5195C44.111 28.9189 44.5315 30.5026 44.5312 32.1143Z" fill="#3EA7FF"/>
<path d="M36.0596 34.501L35.2676 42.1553L24.6416 42.1807H24.623C22.8586 42.1804 21.1665 41.4792 19.9189 40.2314C19.3007 39.6131 18.5667 39.1227 17.7589 38.7881C16.9511 38.4534 16.0853 38.2812 15.2109 38.2812H14.0625V36.5557L36.0596 34.501Z" fill="#E6E6E6"/>
<path d="M35.2676 42.1553H35.1436C32.5338 42.1557 29.9497 41.64 27.5401 40.6377L26.6914 40.2842C24.2878 39.2852 22.1053 37.821 20.2696 35.9756L34.4971 34.6465L35.2676 42.1553Z" fill="#E6E6E6"/>
<path d="M41.8184 39.4424C40.3825 40.8783 38.5145 41.8025 36.5019 42.0728C34.4893 42.3432 32.4436 41.9446 30.6797 40.9385L23.3281 36.7461C18.3242 33.8947 14.094 29.862 11.0068 25C10.6807 24.4873 10.3682 23.9665 10.0693 23.4375C7.19568 18.3553 5.62738 12.6398 5.50488 6.80273C5.49805 6.5371 5.49609 6.2705 5.49609 6.00391L5.49707 5.20898L5.50098 2.37598L16.1016 10.1016C17.8066 11.3438 19.4629 12.6439 21.0703 14.002C21.4746 14.3418 21.8756 14.6862 22.2734 15.0352C23.2266 15.8682 24.1611 16.7214 25.0771 17.5947C25.456 17.957 25.832 18.322 26.2051 18.6895C32.3972 24.8056 37.6577 31.7978 41.8184 39.4424Z" fill="#E6E6E6"/>
<path d="M15.2344 8.59375C15.8816 8.59375 16.4062 8.06908 16.4062 7.42188C16.4062 6.77467 15.8816 6.25 15.2344 6.25C14.5872 6.25 14.0625 6.77467 14.0625 7.42188C14.0625 8.06908 14.5872 8.59375 15.2344 8.59375Z" fill="#808080"/>
<path d="M31.25 32.0312L27.4688 32.4092C26.3488 32.5213 25.2258 32.2266 24.3052 31.5789C23.3846 30.9312 22.7279 29.9739 22.4551 28.8818L21.9893 27.0205C22.8168 26.7431 23.5765 26.2942 24.2188 25.7031L31.25 32.0312Z" fill="#B3B3B3"/>
<path d="M25.3473 37.8906L31.25 44.5312V39.0625L25.3473 37.8906Z" fill="#B3B3B3"/>
<path d="M11.7783 39.1572L7.8125 47.6562C8.13276 45.4168 8.14918 43.1443 7.86133 40.9004C7.77929 40.2647 7.67349 39.6335 7.54395 39.0068C7.33512 37.9935 7.06344 36.9942 6.73046 36.0146C6.54004 35.4512 6.3291 34.8945 6.09765 34.3447C5.16134 32.1178 3.90888 30.0375 2.3789 28.168L2.34375 28.125L10.3896 33.8721C11.2016 34.4524 11.7849 35.2986 12.0385 36.2638C12.2921 37.2291 12.2001 38.2527 11.7783 39.1572Z" fill="#E6E6E6"/>
<path d="M15.2344 9.375C15.6207 9.375 15.9983 9.26045 16.3195 9.04584C16.6407 8.83123 16.891 8.52619 17.0388 8.1693C17.1867 7.81242 17.2253 7.41971 17.15 7.04084C17.0746 6.66197 16.8886 6.31396 16.6154 6.04081C16.3423 5.76766 15.9943 5.58164 15.6154 5.50628C15.2365 5.43092 14.8438 5.4696 14.4869 5.61742C14.1301 5.76525 13.825 6.01559 13.6104 6.33678C13.3958 6.65797 13.2812 7.03558 13.2812 7.42188C13.2818 7.9397 13.4878 8.43614 13.854 8.80229C14.2201 9.16844 14.7166 9.37441 15.2344 9.375ZM15.2344 7.03125C15.3116 7.03125 15.3872 7.05416 15.4514 7.09708C15.5156 7.14001 15.5657 7.20101 15.5953 7.27239C15.6248 7.34377 15.6326 7.42231 15.6175 7.49808C15.6024 7.57386 15.5652 7.64346 15.5106 7.69809C15.456 7.75272 15.3864 7.78992 15.3106 7.805C15.2348 7.82007 15.1563 7.81233 15.0849 7.78277C15.0135 7.7532 14.9525 7.70313 14.9096 7.6389C14.8667 7.57466 14.8438 7.49913 14.8438 7.42188C14.8439 7.31831 14.8851 7.21902 14.9583 7.14579C15.0315 7.07256 15.1308 7.03137 15.2344 7.03125Z" fill="black"/>
<path d="M15.625 18.75C17.6963 18.7477 19.6821 17.9238 21.1467 16.4592C22.6113 14.9946 23.4352 13.0088 23.4375 10.9375H21.875C21.8731 12.5945 21.214 14.1831 20.0423 15.3548C18.8706 16.5265 17.282 17.1856 15.625 17.1875V18.75Z" fill="black"/>
<path d="M25.343 25.6639C25.8326 25.0853 26.2255 24.4315 26.5066 23.7276L25.0559 23.1473C24.6556 24.1575 23.9602 25.0237 23.0605 25.6329C22.1607 26.2421 21.0982 26.566 20.0116 26.5625H19.5312V28.125H20.0116C20.4862 28.1249 20.9596 28.077 21.4246 27.9822L21.697 29.0715C21.9986 30.2528 22.6839 31.3006 23.6454 32.0502C24.607 32.7999 25.7902 33.2091 27.0094 33.2136C27.1873 33.2136 27.3667 33.2047 27.5466 33.1868L31.3277 32.8086C31.4784 32.7936 31.6214 32.7351 31.7394 32.6402C31.8574 32.5454 31.9453 32.4183 31.9924 32.2745C32.0396 32.1306 32.0439 31.9761 32.0049 31.8299C31.9658 31.6836 31.8851 31.5518 31.7726 31.4506L25.343 25.6639ZM27.3911 31.632C26.4585 31.7209 25.5249 31.4735 24.7587 30.9344C23.9925 30.3954 23.4442 29.6003 23.2128 28.6925L22.9146 27.4996C23.3698 27.2931 23.8013 27.038 24.2017 26.7388L29.4138 31.4297L27.3911 31.632Z" fill="black"/>
<path d="M48.4165 19.3514C48.3798 19.1962 48.2965 19.056 48.1778 18.9496C48.0591 18.8431 47.9107 18.7756 47.7524 18.756L38.4373 17.6006C35.1402 12.6829 30.6844 8.65134 25.4625 5.86097C20.2406 3.07061 14.4127 1.60702 8.49196 1.59912L5.50162 1.59497H5.50052C5.2935 1.59496 5.09494 1.67712 4.94845 1.82341C4.80197 1.9697 4.71954 2.16815 4.71927 2.37517L4.7145 6.00285C4.7075 10.866 5.68314 15.6804 7.58286 20.1571C9.48259 24.6339 12.2672 28.6806 15.7697 32.0545L12.6131 32.7673L2.71417 27.4371C2.55495 27.3514 2.37091 27.3235 2.19345 27.3583C2.01599 27.3931 1.85609 27.4884 1.74104 27.628C1.62598 27.7675 1.5629 27.9426 1.56253 28.1234C1.56217 28.3043 1.62455 28.4796 1.73904 28.6196L1.774 28.6624C3.90754 31.276 5.4768 34.3031 6.38296 37.553C7.28911 40.8029 7.51253 44.2053 7.03913 47.5458C7.01404 47.7212 7.04932 47.8999 7.13918 48.0526C7.22903 48.2053 7.36813 48.3229 7.53365 48.3861C7.69916 48.4494 7.88125 48.4545 8.05004 48.4006C8.21883 48.3467 8.36429 48.237 8.46254 48.0896L14.4806 39.0625H15.078L17.1656 44.7985C17.2349 44.9894 17.376 45.1459 17.5588 45.2345C17.7416 45.3231 17.9518 45.337 18.1447 45.2731L25.1497 42.9608L28.8009 42.9519L30.6661 45.0503C30.7713 45.1687 30.9101 45.2523 31.064 45.29C31.2179 45.3277 31.3796 45.3178 31.5276 45.2615C31.6757 45.2052 31.8032 45.1052 31.8931 44.9748C31.9831 44.8444 32.0313 44.6897 32.0313 44.5312V42.9441L35.27 42.9363C37.9327 42.9328 40.4853 41.8733 42.3679 39.9903C44.2505 38.1073 45.3095 35.5545 45.3125 32.8918V32.1139C45.3113 30.4316 44.8883 28.7764 44.0822 27.2999C44.0196 25.987 44.2977 24.6802 44.8893 23.5066C45.481 22.3329 46.3662 21.3322 47.4589 20.6017L48.0896 20.1813C48.2223 20.0928 48.3247 19.9659 48.3832 19.8176C48.4416 19.6692 48.4532 19.5065 48.4165 19.3514ZM6.2914 7.01758C7.509 7.42738 8.58886 8.16728 9.4106 9.15481C10.2323 10.1423 10.7637 11.3387 10.9454 12.6105L12.4921 12.3895C12.2568 10.741 11.5424 9.19803 10.4376 7.95213C9.33277 6.70623 7.8863 5.81234 6.27781 5.38149L6.28072 3.15857L8.48977 3.16162C14.5744 3.17203 20.5488 4.78696 25.81 7.84349C26.5964 8.30067 27.3622 8.78775 28.1076 9.30474C27.7353 17.1607 21.2278 23.4375 13.2813 23.4375H10.9706C10.961 23.421 10.951 23.4046 10.9414 23.3881C8.0525 18.4035 6.45416 12.7765 6.2914 7.01758ZM8.54785 40.2132L11.3982 37.3629C11.3967 37.8689 11.285 38.3686 11.0707 38.827L8.83882 43.6096C8.81629 42.4723 8.71909 41.3378 8.54785 40.2132ZM8.19577 38.3557C8.02559 37.6073 7.82266 36.8675 7.58697 36.1364L10.0615 36.4899L8.19577 38.3557ZM6.98775 34.4725C6.55622 33.3908 6.05245 32.3393 5.47985 31.3251L9.93578 34.5079C10.1254 34.6436 10.3009 34.7979 10.4598 34.9685L6.98775 34.4725ZM16.8223 39.2866C17.4733 39.4711 18.087 39.7679 18.6358 40.1636L17.2429 40.4422L16.8223 39.2866ZM17.7835 41.9275L20.1425 41.4557C20.6613 41.8459 21.2286 42.1671 21.8301 42.4112L18.3746 43.5518L17.7835 41.9275ZM24.64 41.3995H24.6261C23.0685 41.3953 21.5754 40.7769 20.471 39.6786C19.7819 38.9857 18.9622 38.4364 18.0594 38.0625C17.1566 37.6885 16.1886 37.4973 15.2114 37.5H14.0625C13.9339 37.5 13.8073 37.5317 13.6939 37.5924C13.5805 37.6531 13.4838 37.7409 13.4125 37.8479L12.7227 38.8826C12.9817 38.067 13.0296 37.1991 12.8619 36.3601C12.6942 35.521 12.3165 34.7381 11.764 34.0848L12.1296 34.2816C12.2956 34.371 12.4882 34.3974 12.6721 34.3558L17.1746 33.3391C18.9584 34.8865 20.8897 36.255 22.9408 37.4251L24.862 38.5207L27.415 41.3928L24.64 41.3995ZM30.4688 42.4764L27.2643 38.8714L30.4688 39.6725V42.4764ZM43.75 32.8918C43.7501 34.2859 43.4066 35.6585 42.7499 36.8882C42.0931 38.1179 41.1434 39.1667 39.9847 39.9418C38.826 40.717 37.4941 41.1945 36.1068 41.3323C34.7196 41.47 33.3198 41.2637 32.0313 40.7315V39.0625C32.0313 38.8883 31.973 38.719 31.8658 38.5817C31.7586 38.4444 31.6085 38.3468 31.4395 38.3046L25.1895 36.7421C25.0874 36.7173 24.9813 36.7135 24.8776 36.7309L23.7148 36.0678C18.9704 33.36 14.9347 29.5673 11.9378 25H13.2813C21.721 25 28.6917 18.594 29.5889 10.3891C33.1824 13.171 36.1928 16.6336 38.4479 20.579L42.6334 27.9073C43.3645 29.1888 43.7494 30.6386 43.75 32.1139V32.8918ZM44.2652 21.5399L42.6209 20.4437L41.7542 21.7438L43.4573 22.8792C43.1354 23.5317 42.892 24.2201 42.7323 24.93L39.8047 19.8041C39.7099 19.6382 39.6138 19.4731 39.5164 19.3089L45.603 20.0638C45.1047 20.5057 44.6561 21.0007 44.2652 21.5399Z" fill="black"/>
</svg>
