<svg width="50" height="50" viewBox="0 0 50 50" fill="none" xmlns="http://www.w3.org/2000/svg">
<g clip-path="url(#clip0_11_195)">
<path d="M21.3208 14.4825L23.6609 12.0834C24.3376 11.3876 24.3376 10.2796 23.6609 9.58339C23.3378 9.25258 22.8951 9.06622 22.4329 9.06622C21.9706 9.06622 21.5279 9.25258 21.2048 9.58339L23.6609 7.08339C24.3384 6.38759 24.3384 5.27919 23.6609 4.58339C23.3378 4.25258 22.8951 4.06622 22.4329 4.06622C21.9706 4.06622 21.5279 4.25258 21.2048 4.58339L19.9723 5.83339V2.50006C19.9858 1.90639 19.6769 1.35219 19.1646 1.05109C18.6527 0.750387 18.018 0.750387 17.5061 1.05109C16.9942 1.35219 16.685 1.90639 16.6984 2.50006V5.83339L15.4749 4.58746C15.151 4.25543 14.707 4.06825 14.2428 4.06825C13.7789 4.06825 13.3346 4.25543 13.0107 4.58746C12.3328 5.28123 12.3283 6.3884 13.0009 7.08746L15.2059 9.36488C14.5166 8.89817 13.5921 8.99216 13.0107 9.58827C12.7649 9.83973 12.6001 10.1592 12.5383 10.505C12.4272 11.0751 12.5993 11.6635 13.0001 12.0834L15.8215 15C15.7007 14.8768 15.5717 14.7441 15.4443 14.6102C15.127 14.277 14.6875 14.087 14.2273 14.0841C13.7671 14.0813 13.3256 14.266 13.0042 14.5952C12.3324 15.2824 12.3324 16.3811 13.0042 17.0683L18.3769 22.5L23.6609 17.0834C24.3376 16.3876 24.3376 15.2796 23.6609 14.5834C23.0294 13.938 22.0052 13.8937 21.3208 14.4825Z" fill="#70942D"/>
<path d="M20.8333 10H30V35.8333H20.8333V10Z" fill="#63A6D3"/>
<path d="M30 35.8333H38.3333V10L34.1667 5.83337L30 10V35.8333Z" fill="#4092C9"/>
<path d="M20.8333 10L25 5.83337H34.1666L30 10H20.8333Z" fill="#579FD0"/>
<path d="M25 2.5H34.1667V5.83333H25V2.5Z" fill="#D6D9DB"/>
<path d="M20.8333 25.4167V35.8333H30V16.25L20.8333 25.4167Z" fill="#579FD0"/>
<path d="M42.9093 0.833374C44.4405 0.861043 45.8618 1.63538 46.7151 2.90775C47.5683 4.17973 47.7458 5.78861 47.1899 7.21602L38.5091 30.3235C37.8499 32.1216 36.1434 33.3215 34.2285 33.3333C32.6969 33.3057 31.2756 32.5313 30.4224 31.259C29.5695 29.987 29.3921 28.3781 29.9475 26.9507L38.6275 3.84322C39.2871 2.04512 40.9941 0.845581 42.9093 0.833374Z" fill="#D68033"/>
<path d="M29.9475 26.9507C29.3921 28.3781 29.5695 29.987 30.4224 31.2589C31.2756 32.5313 32.6969 33.3056 34.2285 33.3333C36.1434 33.3215 37.8499 32.1216 38.5091 30.3235L44.141 15.3333C40.7145 17.9586 36.687 19.6863 32.4235 20.3601L29.9475 26.9507Z" fill="#D17726"/>
<path d="M39.9833 7.75753L41.5682 7.24158L43.1958 12.242L41.6109 12.7575L39.9833 7.75753Z" fill="#C96E23"/>
<path d="M37.5406 13.5918L39.1255 13.0758L40.7535 18.0754L39.1687 18.5918L37.5406 13.5918Z" fill="#C96E23"/>
<path d="M9.51459 8.72278L10.9884 7.94397L14.0702 13.7777L12.5965 14.5561L9.51459 8.72278Z" fill="#88B337"/>
<path d="M6.94135 11.2085L8.05951 9.97229L12.7812 14.2431L11.6634 15.4793L6.94135 11.2085Z" fill="#88B337"/>
<path d="M23.7899 32.4735C23.0603 32.9593 22.0801 32.8059 21.5332 32.1207L11.1166 19.0482C10.4338 18.2446 10.1241 17.1891 10.2649 16.1437C10.4057 15.0988 10.9839 14.1625 11.8551 13.5685C12.7251 12.9805 13.8066 12.7966 14.8218 13.0635C15.8374 13.3304 16.6883 14.0226 17.1566 14.9625L24.3824 30.3507C24.7384 31.1071 24.4865 32.01 23.7907 32.4735H23.7899Z" fill="#FF7230"/>
<path d="M14.1016 17.0634L11.2761 19.2492L12.3141 20.5525L15.1217 18.3817L14.1016 17.0634Z" fill="#DE5718"/>
<path d="M16.394 20.5273L13.8708 22.5057L14.9101 23.8102L17.4235 21.84L16.394 20.5273Z" fill="#DE5718"/>
<path d="M28.3333 21.25C28.3333 23.7813 26.2813 25.8333 23.75 25.8333C21.2187 25.8333 19.1667 23.7813 19.1667 21.25C19.1667 18.7186 21.2187 16.6666 23.75 16.6666C26.2813 16.6666 28.3333 18.7186 28.3333 21.25Z" fill="#FF9B30"/>
<path d="M25.8191 17.1667C26.1971 18.8855 25.6889 20.6791 24.4657 21.9442C23.2422 23.2092 21.466 23.7773 19.7359 23.4566C20.6807 25.188 22.6277 26.1206 24.5691 25.7719C26.5104 25.4236 28.011 23.8717 28.2946 21.9198C28.5783 19.9679 27.5809 18.0534 25.8191 17.1667Z" fill="#F28E22"/>
<path d="M32.5 20.8333L30 22.4999L27.5 20.8333L25 22.4999L22.5 20.8333L20 22.4999L17.5 20.8333L15 22.4999L12.5 20.8333V45.8332C12.5 47.674 13.9925 49.1666 15.8333 49.1666H35V22.4999L32.5 20.8333Z" fill="#F0AE62"/>
<path d="M40 22.4999L37.5 20.8333L35 22.4999V49.1666H39.1667C41.0075 49.1666 42.5 47.674 42.5 45.8332V20.8333L40 22.4999Z" fill="#E6994E"/>
<path d="M15.8093 47.5484L16.0999 46.9649C17.0203 45.1241 17.4996 43.0941 17.5 41.036C17.5065 39.8311 16.8962 38.7073 15.8822 38.057C14.8682 37.4064 13.5921 37.3201 12.5 37.8284V45.8333C12.5012 47.144 13.2715 48.3317 14.4674 48.8676C15.048 48.5876 15.5196 48.1242 15.8093 47.5484Z" fill="#EDA047"/>
<path d="M10 39.9999H8.33335V36.6666C8.33335 35.7462 7.5871 34.9999 6.66669 34.9999V33.3333C8.50751 33.3333 10 34.8258 10 36.6666V39.9999Z" fill="#965735"/>
<path d="M11.5242 49.1667C11.0697 49.1667 10.6213 49.0609 10.2148 48.8574L9.16666 48.3333L8.11848 48.8574C7.71199 49.0609 7.26359 49.1667 6.80908 49.1667C5.70027 49.1667 4.68668 48.54 4.19067 47.5484L3.90015 46.9649C2.97974 45.1241 2.50041 43.0941 2.5 41.036C2.49959 39.0828 4.08284 37.4996 6.03597 37.5C6.97347 37.5 7.87272 37.8727 8.53596 38.536L9.16666 39.1667L9.79736 38.536C10.4606 37.8727 11.3599 37.5 12.2974 37.5C14.2505 37.4996 15.8337 39.0828 15.8333 41.036C15.8333 43.0949 15.354 45.1257 14.4332 46.9674L14.1426 47.5509C13.6458 48.5417 12.6326 49.1671 11.5242 49.1667Z" fill="#E3584B"/>
<path d="M14.2232 38.0757C12.2583 43.7349 7.0459 46.5624 4.28101 47.7009C5.05045 49.0433 6.73502 49.5511 8.11849 48.8573L9.16666 48.3332L10.2148 48.8573C11.661 49.5808 13.4196 48.9945 14.1426 47.5483L14.4332 46.9648C15.3536 45.124 15.8329 43.094 15.8333 41.0359C15.8329 39.84 15.227 38.7259 14.2232 38.0757Z" fill="#D64740"/>
<path d="M39.9833 7.75753L41.5682 7.24158L43.1958 12.242L41.6109 12.7575L39.9833 7.75753Z" fill="black"/>
<path d="M37.5406 13.5918L39.1255 13.0758L40.7535 18.0754L39.1687 18.5918L37.5406 13.5918Z" fill="black"/>
<path d="M9.44012 16.0226C9.26434 17.2957 9.63584 18.584 10.4635 19.5675L11.6667 21.0767V35H13.3333V22.391L14.5374 23.1934C14.8177 23.3801 15.1823 23.3801 15.4627 23.1934L17.5 21.8335L19.5374 23.1917C19.8177 23.3785 20.1823 23.3785 20.4627 23.1917L22.5 21.8335L24.5374 23.1917C24.8177 23.3785 25.1823 23.3785 25.4626 23.1917L27.5 21.8335L29.5374 23.1917C29.8177 23.3785 30.1823 23.3785 30.4626 23.1917L32.5 21.8335L34.1667 22.9443V48.3333H15.8333V50H39.1667C41.4669 49.9971 43.3305 48.1335 43.3333 45.8333V20.8333C43.3313 20.6502 43.2682 20.4728 43.1543 20.3292L47.97 7.50856C48.6181 5.78615 48.3809 3.85581 47.3352 2.34174C46.3415 0.872826 44.6822 -0.00526594 42.9093 2.3764e-05C40.6494 0.0211826 38.6365 1.43313 37.8475 3.55105L36.5409 7.02923L35 5.4883V2.50002C35 2.03982 34.6269 1.66669 34.1667 1.66669H25C24.5398 1.66669 24.1667 2.03982 24.1667 2.50002V3.92987C23.2247 3.07619 21.8038 3.02777 20.8057 3.81594V2.50002C20.8057 1.13609 19.7001 0.0301344 18.3358 0.0301344C16.9719 0.0301344 15.8659 1.13609 15.8659 2.50002V3.81675C15.4098 3.43874 14.8356 3.23204 14.2432 3.23326C13.5555 3.23163 12.8963 3.50914 12.4166 4.00271C11.4282 5.02118 11.4221 6.63902 12.4024 7.66522L13.1783 8.466C12.8959 8.59539 12.6396 8.77524 12.4219 8.9966L12.4166 8.99985L12.4085 9.0084C12.2144 9.20778 12.0536 9.43727 11.9332 9.68833L10.9835 7.93418L9.51743 8.72764L11.6724 12.7051C11.5759 12.76 11.4791 12.8133 11.3875 12.876C11.3534 12.8992 11.3233 12.926 11.2899 12.9492L8.0652 9.97764L6.93524 11.2032L10.1384 14.1565C9.77053 14.7192 9.53208 15.3565 9.44012 16.0226ZM27.0374 20.14L25 21.4998L22.9627 20.1416C22.6823 19.9548 22.3177 19.9548 22.0374 20.1416L20.0191 21.4876C20.0142 21.4042 20 21.3318 20 21.2516C19.9947 19.4202 21.3167 17.854 23.123 17.5521C24.9296 17.2498 26.689 18.3004 27.2799 20.0342C27.194 20.0566 27.1122 20.092 27.0374 20.14ZM29.1667 20.9432L29.1508 20.9326C29.0507 19.1809 28.1071 17.5867 26.6195 16.6561C25.1322 15.7255 23.2857 15.5741 21.6667 16.25V10.8333H29.1667V20.9432ZM41.6667 45.8333C41.6667 47.2139 40.5473 48.3333 39.1667 48.3333H35.8333V22.946L37.5 21.8335L39.5373 23.1917C39.8177 23.3785 40.1823 23.3785 40.4626 23.1917L41.6667 22.391V45.8333ZM39.4075 4.13658C39.9508 2.66766 41.3432 1.68581 42.9093 1.66669C44.1341 1.66425 45.2795 2.27175 45.9652 3.28656C46.7008 4.35223 46.8668 5.71088 46.4099 6.92263L41.25 20.6665L40 21.4998L37.9626 20.1416C37.6823 19.9548 37.3177 19.9548 37.0373 20.1416L35 21.4998L33.3093 20.3727L39.4075 4.13658ZM35.8976 8.74269L31.475 20.5151L30.8333 20.9432V10.3451L34.1667 7.01174L35.8976 8.74269ZM25.8333 3.33335H33.3333V5.00002H25.8333V3.33335ZM25.3451 6.66668H32.1549L29.6549 9.16668H22.8451L25.3451 6.66668ZM13.606 5.17173C13.7732 4.99921 14.0031 4.90155 14.2432 4.90155C14.4837 4.90196 14.7136 4.99921 14.8808 5.17173L16.1043 6.42173C16.342 6.66424 16.7029 6.73789 17.0166 6.6089C17.3303 6.47951 17.5346 6.17271 17.5326 5.83335V2.50002C17.5191 2.2042 17.6693 1.92507 17.9232 1.7733C18.1775 1.62112 18.4945 1.62112 18.7484 1.7733C19.0027 1.92507 19.1528 2.2042 19.139 2.50002V5.83335C19.1394 6.17149 19.3441 6.47585 19.6574 6.60361C19.9703 6.73179 20.3296 6.65773 20.5668 6.41685L21.794 5.16685C22.1456 4.82058 22.7096 4.82058 23.0607 5.16685C23.4229 5.53754 23.4229 6.12917 23.0607 6.49986L20.6059 8.99985L20.6307 9.02508L20.2441 9.41164C20.177 9.48081 20.1229 9.56138 20.0834 9.64927C20.0716 9.6749 20.0651 9.70094 20.0558 9.72739C20.0309 9.7986 20.0159 9.87265 20.011 9.94753C20.011 9.96584 20.0008 9.98089 20.0008 9.9992V17.3499C19.8112 17.5313 19.635 17.7262 19.4743 17.9334L17.9 14.5833C17.3189 13.4273 16.2687 12.5769 15.0167 12.2502C14.7254 12.1749 14.4267 12.1293 14.126 12.1151L13.9124 11.8648C13.7459 11.674 13.6202 11.5251 13.5999 11.5043C13.3846 11.2789 13.2914 10.9631 13.35 10.6568C13.381 10.4826 13.4611 10.3215 13.5807 10.1917L13.5958 10.1774L13.6166 10.155C13.9185 9.85923 14.386 9.81569 14.7376 10.0501C15.0912 10.2865 15.5656 10.2185 15.839 9.893C16.1125 9.56707 16.0966 9.08815 15.8024 8.78094L13.5999 6.50759C13.2422 6.13324 13.245 5.54282 13.606 5.17173ZM11.0917 16.25C11.2004 15.4423 11.6476 14.7188 12.3218 14.2607C12.9903 13.8086 13.8208 13.6654 14.6025 13.8676C15.3837 14.0702 16.0405 14.5988 16.405 15.319L18.5291 19.8433C18.4766 20.0383 18.4351 20.236 18.405 20.4358L17.9659 20.1424C17.686 19.9557 17.321 19.9557 17.041 20.1424L15 21.4998L13.1519 20.2665L12.9732 20.0427L15.1217 18.3818L14.1016 17.0634L11.9352 18.739L11.7501 18.5083C11.2199 17.8833 10.9806 17.0622 11.0917 16.25Z" fill="black"/>
<path d="M3.44606 47.9215C4.0792 49.1987 5.38372 50.0048 6.8091 49.9999C7.393 49.9991 7.96836 49.8632 8.49082 49.6032L9.16668 49.265L9.84336 49.6032C10.3654 49.8632 10.9408 49.9991 11.5243 49.9999C12.95 50.0048 14.2542 49.1987 14.8877 47.9215L15.1782 47.3384C16.154 45.3804 16.6634 43.2234 16.6667 41.0359C16.6638 38.6238 14.7095 36.6694 12.2974 36.6666C11.4844 36.669 10.6881 36.8997 10 37.3331V36.6666C10 34.8258 8.5075 33.3333 6.66668 33.3333V34.9999C7.58709 34.9999 8.33335 35.7462 8.33335 36.6666V37.3331C7.64528 36.8997 6.84897 36.669 6.03599 36.6666C3.62388 36.6694 1.66954 38.6238 1.66669 41.0359C1.66954 43.2238 2.17897 45.3816 3.15513 47.34L3.44606 47.9215ZM6.03599 38.3332C6.75295 38.3312 7.44101 38.6165 7.94679 39.1251L8.57749 39.7558C8.90301 40.0809 9.43035 40.0809 9.75587 39.7558L10.3866 39.1251C11.1597 38.352 12.3218 38.1208 13.3317 38.5391C14.3416 38.9574 15 39.9429 15 41.0359C14.998 42.9654 14.5488 44.8681 13.6873 46.595L13.3968 47.1785C13.0432 47.8885 12.3173 48.3361 11.5243 48.3332C11.1996 48.3328 10.8793 48.2571 10.5884 48.1123L9.5394 47.5874C9.30462 47.4702 9.02874 47.4702 8.79437 47.5874L7.74578 48.1123C7.45485 48.2571 7.13421 48.3328 6.8091 48.3332C6.01564 48.3357 5.28932 47.8869 4.93654 47.1756L4.64601 46.5925C3.78501 44.8664 3.33579 42.9646 3.33335 41.0359C3.33539 39.5442 4.54429 38.3353 6.03599 38.3332Z" fill="black"/>
</g>
<defs>
<clipPath id="clip0_11_195">
<rect width="50" height="50" fill="white"/>
</clipPath>
</defs>
</svg>
