<?xml version="1.0" encoding="UTF-8"?>
<svg xmlns="http://www.w3.org/2000/svg" width="50" height="50" viewBox="0 0 50 50" fill="none">
  <path d="M35.9375 6.25H10.9375C5.75986 6.25 1.5625 10.4473 1.5625 15.625V21.875C1.5625 27.0527 5.75986 31.25 10.9375 31.25H11.7417C14.2281 31.25 16.6127 32.2377 18.3708 33.9959L25.3791 41.0042C27.1373 42.7623 29.5219 43.75 32.0083 43.75H35.9375C42.841 43.75 48.4375 38.1535 48.4375 31.25V18.75C48.4375 11.8465 42.841 6.25 35.9375 6.25Z" fill="#A55023"></path>
  <path d="M1.5625 15.625V17.1875C1.5625 22.3651 5.75986 26.5625 10.9375 26.5625H11.7417C14.2281 26.5625 16.6127 27.5502 18.3708 29.3084L25.3791 36.3167C27.1373 38.0748 29.5219 39.0625 32.0082 39.0625H35.9375C42.841 39.0625 48.4375 33.466 48.4375 26.5625V18.75C48.4375 11.8465 42.841 6.25 35.9375 6.25H10.9375C5.75986 6.25 1.5625 10.4474 1.5625 15.625Z" fill="#FAB991"></path>
  <path d="M38.9317 8.22959C37.9799 7.95801 36.9754 7.8125 35.9375 7.8125H21.741C21.045 7.8125 20.6964 8.654 21.1886 9.14619L27.0183 14.976C27.8087 15.7664 28.9604 16.0716 30.0404 15.7831C30.4263 15.68 30.8316 15.625 31.25 15.625C31.6684 15.625 32.0738 15.68 32.4596 15.783C33.5396 16.0715 34.6912 15.7663 35.4817 14.9759L39.6174 10.8402C40.4631 9.99453 40.0819 8.55772 38.9317 8.22959Z" fill="#F04B37"></path>
  <path d="M42.7333 32.9007L35.4981 25.6655C34.7096 24.877 33.5591 24.5422 32.4832 24.8356C31.9983 24.9679 31.4822 25.0241 30.948 24.9905C28.6115 24.8436 26.7193 22.9516 26.5721 20.6151C26.5384 20.0809 26.5946 19.5646 26.7269 19.0797C27.0203 18.0035 26.6854 16.8528 25.8967 16.0641L19.0181 9.18545C18.139 8.30635 16.9467 7.8125 15.7035 7.8125H10.9375C6.62275 7.8125 3.125 11.3103 3.125 15.625V17.1875C3.125 21.5022 6.62275 25 10.9375 25H11.7417C14.6633 25 17.4099 26.1377 19.4757 28.2036L26.484 35.2118C27.9596 36.6874 29.9214 37.5001 32.0082 37.5001H35.9375C38.4336 37.5001 40.7369 36.6594 42.5796 35.2464C43.3289 34.6717 43.401 33.5684 42.7333 32.9007Z" fill="#F04B37"></path>
  <path d="M43.7686 11.1227C43.1637 10.5019 42.1644 10.5032 41.5514 11.1161L36.5866 16.0808C35.7962 16.8712 35.491 18.0229 35.7795 19.1029C35.8825 19.4887 35.9375 19.8942 35.9375 20.3125C35.9375 20.7309 35.8825 21.1364 35.7795 21.5221C35.491 22.6021 35.7962 23.7537 36.5866 24.5443L43.4348 31.3924C44.2183 32.1759 45.5379 31.9144 45.9786 30.8978C46.5552 29.5679 46.875 28.1019 46.875 26.5625V18.75C46.875 15.7863 45.6897 13.0944 43.7686 11.1227Z" fill="#F04B37"></path>
  <path d="M31.25 23.4375C32.9759 23.4375 34.375 22.0384 34.375 20.3125C34.375 18.5866 32.9759 17.1875 31.25 17.1875C29.5241 17.1875 28.125 18.5866 28.125 20.3125C28.125 22.0384 29.5241 23.4375 31.25 23.4375Z" fill="#F04B37"></path>
</svg>
